<svg width="27" height="27" viewBox="0 0 27 27" fill="none" xmlns="http://www.w3.org/2000/svg">
<path d="M14.2973 3.54248C11.7015 3.54248 9.21202 4.57366 7.37651 6.40917C5.54099 8.24468 4.50981 10.7342 4.50981 13.33H1.24731L5.47769 17.5604L5.55381 17.7126L9.94731 13.33H6.68481C6.68481 9.12136 10.0887 5.71748 14.2973 5.71748C18.5059 5.71748 21.9098 9.12136 21.9098 13.33C21.9098 17.5386 18.5059 20.9425 14.2973 20.9425C12.1984 20.9425 10.2953 20.0834 8.92506 18.7022L7.38081 20.2465C8.28715 21.1578 9.36494 21.8807 10.552 22.3735C11.7391 22.8662 13.012 23.1191 14.2973 23.1175C16.8931 23.1175 19.3826 22.0863 21.2181 20.2508C23.0536 18.4153 24.0848 15.9258 24.0848 13.33C24.0848 10.7342 23.0536 8.24468 21.2181 6.40917C19.3826 4.57366 16.8931 3.54248 14.2973 3.54248ZM13.2098 8.97998V14.4175L17.8317 17.158L18.6691 15.766L14.8411 13.4931V8.97998H13.2098Z" fill="#F8F8F8"/>
</svg>
