<svg width="27" height="27" viewBox="0 0 27 27" fill="none" xmlns="http://www.w3.org/2000/svg">
<g clip-path="url(#clip0_49_4947)">
<path d="M6.05225 11.2026C6.05225 16.0545 10.2967 20.0667 12.1754 21.605C12.4443 21.8251 12.5804 21.9365 12.781 21.993C12.9372 22.037 13.167 22.037 13.3232 21.993C13.5242 21.9364 13.6593 21.8261 13.9292 21.6052C15.8079 20.0669 20.0522 16.0549 20.0522 11.2031C20.0522 9.36697 19.3147 7.60584 18.002 6.30751C16.6892 5.00918 14.9088 4.27979 13.0523 4.27979C11.1958 4.27979 9.41525 5.00929 8.1025 6.30762C6.78974 7.60595 6.05225 9.36652 6.05225 11.2026Z" stroke="white" stroke-width="2" stroke-linecap="round" stroke-linejoin="round"/>
<path d="M11.0522 10.2798C11.0522 11.3844 11.9477 12.2798 13.0522 12.2798C14.1568 12.2798 15.0522 11.3844 15.0522 10.2798C15.0522 9.17522 14.1568 8.27979 13.0522 8.27979C11.9477 8.27979 11.0522 9.17522 11.0522 10.2798Z" stroke="white" stroke-width="2" stroke-linecap="round" stroke-linejoin="round"/>
</g>
<defs>
<clipPath id="clip0_49_4947">
<rect width="26.1" height="26.1" fill="white" transform="translate(0.0600586 0.279785)"/>
</clipPath>
</defs>
</svg>
