<svg width="27" height="27" viewBox="0 0 27 27" fill="none" xmlns="http://www.w3.org/2000/svg">
<path d="M18 27H15V24H18V27ZM15 16.5H12V24H15V16.5ZM27 13.5H24V19.5H27V13.5ZM24 10.5H21V13.5H24V10.5ZM6 13.5H3V16.5H6V13.5ZM3 10.5H0V13.5H3V10.5ZM13.5 3H16.5V0H13.5V3ZM2.25 2.25V6.75H6.75V2.25H2.25ZM7.5 9H1.5C0.675 9 0 8.325 0 7.5V1.5C0 0.675 0.675 0 1.5 0H7.5C8.325 0 9 0.675 9 1.5V7.5C9 8.325 8.325 9 7.5 9ZM2.25 20.25V24.75H6.75V20.25H2.25ZM7.5 27H1.5C0.675 27 0 26.325 0 25.5V19.5C0 18.675 0.675 18 1.5 18H7.5C8.325 18 9 18.675 9 19.5V25.5C9 26.325 8.325 27 7.5 27ZM20.25 2.25V6.75H24.75V2.25H20.25ZM25.5 9H19.5C18.675 9 18 8.325 18 7.5V1.5C18 0.675 18.675 0 19.5 0H25.5C26.325 0 27 0.675 27 1.5V7.5C27 8.325 26.325 9 25.5 9ZM24 24V19.5H18V22.5H21V27H27V24H24ZM21 13.5H15V16.5H21V13.5ZM15 10.5H6V13.5H9V16.5H12V13.5H15V10.5ZM16.5 9V6H13.5V3H10.5V9H16.5ZM5.625 3.375H3.375V5.625H5.625V3.375ZM5.625 21.375H3.375V23.625H5.625V21.375ZM23.625 3.375H21.375V5.625H23.625V3.375Z" fill="#2B2B28"/>
</svg>
