<svg width="36" height="35" viewBox="0 0 36 35" fill="none" xmlns="http://www.w3.org/2000/svg">
<g clip-path="url(#clip0_49_5004)">
<path d="M0.76001 1.1373C0.76001 0.848882 0.874585 0.572272 1.07853 0.368326C1.28248 0.16438 1.55909 0.0498047 1.84751 0.0498047L8.37251 0.0498047C8.66093 0.0498047 8.93754 0.16438 9.14149 0.368326C9.34543 0.572272 9.46001 0.848882 9.46001 1.1373C9.46001 1.42573 9.34543 1.70234 9.14149 1.90628C8.93754 2.11023 8.66093 2.2248 8.37251 2.2248C5.36946 2.2248 2.93501 4.65926 2.93501 7.6623C2.93501 7.95073 2.82043 8.22734 2.61649 8.43128C2.41254 8.63523 2.13593 8.7498 1.84751 8.7498C1.55909 8.7498 1.28248 8.63523 1.07853 8.43128C0.874585 8.22734 0.76001 7.95073 0.76001 7.6623V1.1373ZM26.86 1.1373C26.86 0.848882 26.9746 0.572272 27.1785 0.368326C27.3825 0.16438 27.6591 0.0498047 27.9475 0.0498047L34.4725 0.0498047C34.7609 0.0498047 35.0375 0.16438 35.2415 0.368326C35.4454 0.572272 35.56 0.848882 35.56 1.1373V7.6623C35.56 7.95073 35.4454 8.22734 35.2415 8.43128C35.0375 8.63523 34.7609 8.7498 34.4725 8.7498C34.1841 8.7498 33.9075 8.63523 33.7035 8.43128C33.4996 8.22734 33.385 7.95073 33.385 7.6623C33.385 4.65926 30.9506 2.2248 27.9475 2.2248C27.6591 2.2248 27.3825 2.11023 27.1785 1.90628C26.9746 1.70234 26.86 1.42573 26.86 1.1373ZM1.84751 26.1498C2.13593 26.1498 2.41254 26.2644 2.61649 26.4683C2.82043 26.6723 2.93501 26.9489 2.93501 27.2373C2.93501 30.2404 5.36946 32.6748 8.37251 32.6748C8.66093 32.6748 8.93754 32.7894 9.14149 32.9933C9.34543 33.1973 9.46001 33.4739 9.46001 33.7623C9.46001 34.0507 9.34543 34.3273 9.14149 34.5313C8.93754 34.7352 8.66093 34.8498 8.37251 34.8498H1.84751C1.55909 34.8498 1.28248 34.7352 1.07853 34.5313C0.874585 34.3273 0.76001 34.0507 0.76001 33.7623V27.2373C0.76001 26.9489 0.874585 26.6723 1.07853 26.4683C1.28248 26.2644 1.55909 26.1498 1.84751 26.1498ZM34.4725 26.1498C34.7609 26.1498 35.0375 26.2644 35.2415 26.4683C35.4454 26.6723 35.56 26.9489 35.56 27.2373V33.7623C35.56 34.0507 35.4454 34.3273 35.2415 34.5313C35.0375 34.7352 34.7609 34.8498 34.4725 34.8498H27.9475C27.6591 34.8498 27.3825 34.7352 27.1785 34.5313C26.9746 34.3273 26.86 34.0507 26.86 33.7623C26.86 33.4739 26.9746 33.1973 27.1785 32.9933C27.3825 32.7894 27.6591 32.6748 27.9475 32.6748C30.9506 32.6748 33.385 30.2404 33.385 27.2373C33.385 26.9489 33.4996 26.6723 33.7035 26.4683C33.9075 26.2644 34.1841 26.1498 34.4725 26.1498ZM9.46001 9.8373C9.46001 9.2367 9.9469 8.7498 10.5475 8.7498C11.1481 8.7498 11.635 9.2367 11.635 9.8373C11.635 10.4379 11.1481 10.9248 10.5475 10.9248C9.9469 10.9248 9.46001 10.4379 9.46001 9.8373Z" fill="#2B2B28"/>
<path d="M15.9851 4.3999H5.11011V15.2749H15.9851V4.3999ZM7.28511 6.5749H13.8101V13.0999H7.28511V6.5749ZM11.6351 23.9749H9.46011V26.1499H11.6351V23.9749Z" fill="#F8F8F8"/>
<path d="M15.9851 19.625H5.11011V30.5H15.9851V19.625ZM7.28511 21.8H13.8101V28.325H7.28511V21.8ZM24.6851 8.75H26.8601V10.925H24.6851V8.75Z" fill="#F8F8F8"/>
<path d="M20.3349 4.3999H31.2099V15.2749H20.3349V4.3999ZM22.5099 6.5749V13.0999H29.0349V6.5749H22.5099ZM18.1599 17.4499V21.7999H20.3349V23.9749H18.1599V26.1499H22.5099V21.7999H24.6849V26.1499H26.8599V23.9749H31.2099V21.7999H24.6849V17.4499H18.1599ZM22.5099 21.7999H20.3349V19.6249H22.5099V21.7999ZM31.2099 26.1499H29.0349V28.3249H24.6849V30.4999H31.2099V26.1499ZM22.5099 30.4999V28.3249H18.1599V30.4999H22.5099Z" fill="#F8F8F8"/>
<path d="M26.8601 19.6247H31.2101V17.4497H26.8601V19.6247Z" fill="#F8F8F8"/>
<circle cx="10.5233" cy="9.81331" r="1.25667" fill="#F8F8F8"/>
<path d="M1.43677 17.4497L35.1734 17.1597" stroke="#2B2B28" stroke-width="7" stroke-linecap="round" stroke-linejoin="round"/>
</g>
<defs>
<clipPath id="clip0_49_5004">
<rect width="34.8" height="34.8" fill="white" transform="translate(0.76001 0.0498047)"/>
</clipPath>
</defs>
</svg>
